<svg width="282" height="145" viewBox="0 0 282 145" fill="none" xmlns="http://www.w3.org/2000/svg">
<path d="M22.1742 61.5362C20.5644 59.897 17.501 63.0583 16.3547 64.0493C12.8228 67.1027 9.66302 70.6194 7.64091 74.8671C4.78914 80.8576 2.21 88.1947 1.55283 94.8155C1.04147 99.9674 3.50951 103.109 8.81491 102.658C10.5785 102.508 13.1124 101.783 14.7508 101.286C19.7117 99.7813 24.7943 98.2495 29.5733 96.241C36.511 93.3253 39.6824 91.58 46.0515 86.7605C60.0171 76.1927 72.3294 63.1477 83.9823 50.1535C96.2108 36.5174 108.362 22.0228 115.402 4.91912C116.326 2.67506 116.003 3.44802 116.57 1.90461C116.985 0.775398 116.671 2.41427 116.66 2.49143C115.827 8.48067 114.018 14.3012 112.414 20.1125C104.6 48.4284 96.8904 76.7719 88.9813 105.062C88.5945 106.445 88.1559 110.519 88.1927 106.448C88.3326 90.9858 88.718 74.5575 80.6554 60.7507C78.5369 57.1228 75.6522 53.6408 72.4292 50.9359C68.884 47.9606 65.2768 47.2407 60.7545 47.6627C47.1535 48.9317 35.1447 55.4067 30.0289 68.6394C26.5868 77.543 30.2418 86.8033 38.0526 92.089C47.2758 98.3304 59.4817 99.716 70.1888 97.2578C77.0772 95.6763 82.8839 91.2775 88.2117 86.841C90.9234 84.5831 93.1972 82.1732 95.2013 79.2862C95.6743 78.6048 96.1595 77.9296 96.7237 77.3202C97.0596 76.9574 97.5909 76.1877 98.1593 76.1928C99.5068 76.205 96.8904 83.8048 96.8867 83.8153C94.4858 90.5497 91.8932 97.2697 88.9296 103.778C88.2045 105.371 86.7292 107.313 86.4583 109.094C86.0981 111.461 87.5335 104.402 88.453 102.19C89.5368 99.5834 90.7108 97.0497 91.6279 94.3792C91.9929 93.3164 92.5314 92.1902 93.208 91.2892C93.5434 90.8425 94.1233 90.1255 94.7706 90.1313C95.1252 90.1346 94.2133 90.5878 94.0194 90.8848C92.8584 92.6631 91.3597 95.0288 91.1431 97.194C91.0599 98.0261 91.2616 98.1228 92.0424 97.5822C94.1652 96.1124 95.5963 94.0698 97.1447 92.0534C98.5863 90.1762 100.165 88.3784 101.456 86.3907C101.536 86.2681 103.371 83.0765 101.97 83.9246C99.9141 85.1687 97.959 87.172 96.3338 88.9101C94.9331 90.408 94.396 92.0803 93.47 93.8415C93.2307 94.2967 91.566 97.2831 92.1962 96.3324C92.8231 95.3869 93.752 94.568 94.5319 93.7561C95.3903 92.8626 96.1535 91.8288 95.9421 93.6897C95.458 97.95 92.3555 101.627 92.4735 105.949C92.5087 107.237 94.2474 106.095 94.7396 105.811C98.0157 103.921 100.939 101.124 103.471 98.3508C105.594 96.0242 108.691 92.6982 109.537 89.5364C109.681 88.9978 107.31 90.8299 107.148 91.0036C105.826 92.4242 104.513 94.0907 105.901 95.807C106.308 96.3105 106.995 96.652 107.202 97.2918C107.677 98.7617 107.116 100.869 106.698 102.276C106.054 104.439 104.527 105.286 102.607 106.278C102.321 106.426 99.5374 108.37 99.5903 107.09C99.6503 105.638 102.131 99.4158 104.132 102.316C105.341 104.07 105.374 106.714 108.127 105.346C111.26 103.789 113.117 100.435 114.723 97.5023C117.402 92.6111 119.853 87.5369 121.135 82.0865C121.743 79.4979 123.836 71.8242 123.468 74.4579C122.939 78.2464 121.302 81.7888 119.649 85.1932C116.807 91.0485 113.873 96.854 111.238 102.808C110.793 103.816 109.11 105.941 110.212 105.951C111.192 105.96 112.018 103.649 112.36 103.088C112.692 102.544 114.959 98.0091 116.313 98.6254C116.715 98.8086 116.43 100.149 116.407 100.432C116.249 102.358 116.02 104.763 117.049 106.504C119.529 110.696 124.507 99.4711 124.962 98.4027C126.074 95.7968 126.777 94.8871 129.452 94.0562C132.561 93.0906 131.472 95.8706 130.811 97.933C130.058 100.281 130.163 99.513 130.178 97.8956C130.19 96.5275 130.91 93.8589 128.786 94.2085C127.172 94.4742 126.576 96.0428 126.017 97.3828C125.037 99.7298 123.859 102.08 123.117 104.515C122.764 105.676 122.484 106.95 123.149 108.048C124.538 110.343 126.658 106.7 127.383 105.694C130.575 101.266 133.606 96.3902 135.685 91.3251C136.497 89.3481 134.049 95.2737 133.256 97.2582C132.905 98.136 130.671 101.985 131.334 103.085C131.778 103.822 133.339 102.545 133.622 102.266C135.291 100.628 136.78 98.591 138.045 96.6363C139.138 94.947 139.082 93.4578 139.658 91.6461C139.659 91.6408 140.298 90.5065 140.093 90.8581C139.137 92.4966 138.257 94.3286 137.574 96.0936C136.909 97.8166 136.535 99.1715 136.057 100.99C135.845 101.798 134.709 104.894 135.078 105.986C135.2 106.348 139.54 101.799 139.614 101.719C141.921 99.2189 144.367 96.7193 145.707 93.538C146.355 91.9994 146.951 90.4289 147.586 88.8828C150.169 82.5903 144.054 102.026 141.976 108.503C138.674 118.795 136.432 129.703 131.765 139.501C130.925 141.263 130.307 142.824 128.282 142.874C125.984 142.931 122.599 143.059 120.821 141.302C118.77 139.276 119.393 135.06 119.791 132.534C120.221 129.813 121.552 127.505 123.277 125.391C125.679 122.448 128.138 121.39 131.656 120.051C134.921 118.808 138.01 117.421 141.04 115.685C143.379 114.345 145.626 112.876 148.138 111.869C154.304 109.396 160.965 107.874 166.813 104.657C172.551 101.501 176.14 95.5473 178.211 89.4925C182.683 76.4233 178.349 62.5006 166.484 55.2395C154.617 47.9769 141.15 45.9192 127.458 44.8926C104.985 43.2078 83.1391 45.8659 61.4149 51.6915C54.6307 53.5108 44.4911 56.7871 37.8121 59.1436C34.5263 60.3029 31.2556 61.5091 28.0227 62.8086C25.2966 63.9045 19.2091 66.0877 16.7707 68.8362C10.9482 75.3989 39.8383 78.2067 40.4583 78.2682C52.555 79.4683 68.9006 80.0909 80.5724 80.4367C106.579 81.2073 132.626 81.4928 158.644 81.5073C181.17 81.5199 203.66 79.7671 226.183 80.9305C242.748 81.786 259.066 83.9279 275.287 87.2981C275.843 87.4136 277.04 87.3018 276.897 87.8512C276.696 88.6271 277.145 88.3603 277.938 88.3674" stroke="#513F39"/>
<path d="M276.196 87.3514C279.219 88.7738 280.144 90.1188 280.64 93.3434C280.897 95.0132 280.969 97.5843 280.594 99.1805C279.981 101.783 278.019 102.586 275.825 103.903C273.202 105.476 269.52 105.188 266.597 105.188C264.919 105.188 263.416 104.533 261.844 104.367C260.024 104.176 259.884 102.252 258.979 100.946C258.28 99.9352 259.208 97.1249 259.908 96.4245C260.318 96.0151 260.992 96.3936 261.426 95.8516C261.683 95.5304 262.709 95.7123 263.098 95.7123" stroke="#513F39"/>
</svg>
