<svg width="135" height="65" viewBox="0 0 135 65" fill="none" xmlns="http://www.w3.org/2000/svg">
<path d="M1.25671 16.5267C-0.554505 14.2627 7.77959 12.3846 8.7116 12.2233C14.4963 11.2221 19.7943 13.4071 24.7469 16.1957C27.8741 17.9565 31.5374 19.974 33.5656 23.0812C35.0258 25.318 35.9844 27.92 37.1938 30.2977C38.8969 33.6463 40.5753 37.035 41.8547 40.573C42.2887 41.7731 43.3342 44.0918 42.914 45.4458C42.7242 46.0574 41.886 43.6572 41.8812 43.6185C41.5618 41.0277 41.7968 38.3309 41.762 35.7267C41.7088 31.7351 41.2517 27.7905 41.0735 23.8095C40.8644 19.14 40.8884 14.4715 40.7954 9.8001C40.7441 7.21952 40.7002 4.61745 40.0009 2.12011C39.8989 1.75567 39.8685 1.40938 39.8685 1.03432C39.8685 0.864515 39.8246 1.37146 39.7891 1.53749C39.414 3.28782 38.8315 5.00269 38.2796 6.70162C35.2012 16.1773 31.6583 25.4742 28.3221 34.8527C26.984 38.6142 25.6648 42.2591 24.151 45.949C23.6459 47.1802 23.0645 48.2733 22.5885 49.5109C22.3359 50.1679 21.0774 52.3855 22.6812 51.2985C24.606 49.9939 26.2653 48.5753 28.4809 47.7498C30.1296 47.1356 31.9062 46.8016 33.5127 46.0814C36.2046 44.8747 39.3472 43.0779 41.5634 41.1292C43.3385 39.5683 44.5851 37.6282 45.8933 35.687C46.5202 34.7567 47.2793 33.9069 47.7206 32.8665C48.4293 31.1962 49.1709 29.4788 49.9319 27.8348C50.1304 27.4062 50.2765 25.6533 50.8324 25.5838C51.0281 25.5593 51.0383 25.4058 51.2031 25.3587C51.8175 25.1831 51.5474 27.4694 51.5474 27.5832C51.5474 30.3081 51.4998 33.0159 51.0707 35.7134C50.9044 36.7589 50.794 37.9981 50.2497 38.9311C49.1203 40.8673 49.4834 43.6936 48.343 45.6577C47.6922 46.7784 47.6437 45.6809 47.7471 45.0089C47.8366 44.4275 48.3683 43.8545 48.5813 43.3007C48.9664 42.2995 49.2579 41.1814 49.773 40.242C50.9281 38.1357 51.6749 35.5885 53.2688 33.767C53.9961 32.9357 54.2959 31.8461 54.765 30.8671C54.9934 30.3905 55.9153 29.3222 55.7979 28.7352C55.7717 28.6044 54.0459 30.4471 53.8514 30.6685C53.3287 31.2633 52.7395 31.8944 52.3948 32.615C51.7339 33.997 51.5391 35.5564 50.8853 36.9184C50.3764 37.9786 51.0736 36.436 51.2561 36.1769C52.221 34.8067 53.9316 34.1636 55.255 33.2108C56.3052 32.4547 56.4175 32.4594 56.301 33.7405C56.1268 35.6571 54.5186 37.0029 54.05 38.8252C53.8491 39.6065 51.6966 45.8074 54.3281 43.7774C56.8008 41.8699 59.0223 39.5443 60.6972 36.9052C60.817 36.7163 62.6458 33.9447 62.114 33.4889C61.3235 32.8113 61.2971 35.9395 61.3328 36.2961C61.3879 36.8475 61.7123 37.3828 62.0345 37.8188C62.6671 38.6746 62.9641 39.5716 63.1733 40.626C63.7303 43.4331 62.6542 44.7769 59.7041 44.6514C58.8059 44.6131 58.5852 43.3569 58.4726 42.6254C58.2867 41.4169 58.8323 42.0916 59.4128 42.5063C59.8345 42.8075 60.8178 44.5086 61.3725 43.7245C62.3222 42.3818 63.0039 40.524 63.5441 38.9841C64.4179 36.4926 65.4831 34.0215 66.1394 31.463C66.9479 28.3107 68.6706 18.7444 68.5228 21.9954C68.4636 23.2986 68.0252 24.7285 67.8607 26.0075C67.4845 28.9327 67.3027 31.8769 67.0398 34.813C66.7423 38.1347 66.3963 41.4684 65.7554 44.744C65.4992 46.0534 65.5974 44.6005 65.6097 44.1747C65.6611 42.3948 66.2143 40.7443 67.2252 39.2754C68.2382 37.8033 69.7972 36.9436 70.8533 35.5148C71.8802 34.1255 70.8944 38.9873 70.6149 40.6922C70.5595 41.0302 69.8399 44.7143 71.3829 43.592C72.7227 42.6177 73.252 40.3044 73.8988 38.8781C74.5699 37.3983 75.2559 35.8341 76.2822 34.5614C78.284 32.0792 78.3306 34.5654 78.189 36.4947C78.1402 37.1597 78.0036 37.8262 78.0036 38.4941C78.0036 39.2266 77.896 36.9817 77.5269 36.349C77.4148 36.1568 77.0732 35.3267 76.7854 35.4089C75.8814 35.6672 75.3784 37.3598 75.117 38.0836C74.5196 39.738 73.3231 42.0772 73.7399 43.8834C74.1466 45.6455 75.9888 42.8209 76.2028 42.4003C77.2958 40.2521 78.1535 37.9746 78.242 35.5413C78.3235 33.2982 77.1575 37.8352 77.0767 38.1896C76.9388 38.7951 76.5416 40.2098 76.8384 40.8776C76.8773 40.9651 78.3536 39.6286 78.4803 39.5137C79.388 38.6911 80.1698 37.6045 80.7181 36.5079C81.2083 35.5275 81.5271 33.6524 81.0756 36.0709C80.7683 37.7173 80.3734 39.3817 80.2017 41.0497C80.0651 42.3767 81.8694 40.1662 82.0025 39.9904C83.009 38.6613 83.739 37.2037 84.0947 35.5678C84.2374 34.9112 84.4629 32.9101 84.4389 33.5816C84.1719 41.0582 81.8429 48.3871 81.2345 55.8535C81.0055 58.6643 80.6125 61.4392 78.242 63.3217C76.8194 64.4514 74.5827 64.4454 73.6737 62.6861C72.7843 60.9647 72.9038 58.4036 73.0514 56.5421C73.3765 52.4413 77.0956 49.989 79.8309 47.3526C83.9708 43.3625 91.6473 36.63 89.3647 29.8475C87.8556 25.3633 82.6831 23.1424 78.52 21.9689C73.8875 20.6631 69.0706 20.4721 64.2856 20.605C58.4935 20.7659 52.6599 21.3368 46.9924 22.5648C38.6923 24.3631 30.6624 27.962 23.052 31.6483C21.9896 32.1629 20.5553 32.2816 19.9005 33.2638C19.4913 33.8776 21.2413 33.9212 21.9662 34.0583C25.1436 34.6589 27.5923 34.7037 31.0365 34.813C45.9988 35.288 60.9983 35.1069 75.9645 35.1176C94.9112 35.131 113.835 35.1547 132.77 34.6674C134.56 34.6213 134.332 35.719 132.823 34.6409" stroke="#513F39"/>
</svg>
