<svg width="150" height="68" viewBox="0 0 150 68" fill="none" xmlns="http://www.w3.org/2000/svg">
<path d="M9.13007 40.2513L10.0334 38.8852L10.9368 37.5191L11.8401 36.153L12.7434 34.7869L13.6468 33.4207L14.5501 32.0546L17.2601 27.9563L19.9702 23.8579L24.4869 16.3443L27.1969 12.2459L34.4236 2L42.5537 40.2513M42.5537 40.2513C42.3509 39.4077 42.0822 38.4911 41.744 37.5191C41.2974 36.2359 40.7294 34.8563 40.0311 33.4207M42.5537 40.2513C44.9626 41.6175 49.7804 43.53 49.7804 40.2513C49.7804 38.7124 49.7804 36.712 49.7804 34.7869M4.61337 9.09233C3.44049 8.96794 2.23623 8.87979 1 8.8306L4.61337 9.09233ZM4.61337 9.09233C5.85262 9.22376 7.05685 9.39567 8.22673 9.60486M8.22673 9.60486C9.15141 9.77021 10.0546 9.95886 10.9368 10.1692M8.22673 9.60486L10.9368 10.1692M10.9368 10.1692C11.8632 10.3902 12.7665 10.6351 13.6468 10.9022M13.6468 10.9022C14.5754 11.184 15.4786 11.4904 16.3568 11.8193M13.6468 10.9022L16.3568 11.8193M16.3568 11.8193C17.2801 12.1651 18.1758 12.5358 19.0443 12.929M19.0443 12.929C20.3135 13.5034 21.5249 14.1257 22.6802 14.7881M19.0443 12.929L22.6802 14.7881M22.6802 14.7881C23.9082 15.4923 25.0728 16.2418 26.1761 17.0273M26.1761 17.0273C27.5079 17.9756 28.7503 18.9764 29.9069 20.0134M26.1761 17.0273L29.9069 20.0134M29.9069 20.0134C30.8067 20.8202 31.6546 21.6489 32.4523 22.4918M32.4523 22.4918C33.7208 23.8322 34.8622 25.2087 35.8834 26.5901M32.4523 22.4918L35.8834 26.5901M35.8834 26.5901C36.8971 27.9614 37.7923 29.3376 38.5757 30.6885M38.5757 30.6885C39.1126 31.6144 39.5971 32.5284 40.0311 33.4207M38.5757 30.6885L40.0311 33.4207M49.7804 34.7869C49.7804 32.6106 49.7804 30.5305 49.7804 29.3224V34.7869ZM49.7804 34.7869C53.0927 34.7869 59.5365 33.694 58.8139 29.3224C59.0525 31.1439 57.5799 34.7869 49.7804 34.7869ZM49.7804 34.7869C53.0927 35.2422 59.5365 37.3825 58.8139 42.3005C62.4272 41.1621 68.7506 38.2022 65.1373 35.4699C63.6317 35.2422 60.8012 35.3333 61.5239 37.5191C62.4272 40.2513 66.0406 39.5683 66.0406 41.6175H68.7506V38.5437M68.7506 35.4699V38.5437M68.7506 38.5437C69.9551 37.7468 72.5447 37.2459 73.2673 41.6175C74.7729 39.3406 77.9647 35.3333 78.6874 37.5191C79.5907 40.2513 78.6874 41.6175 76.8807 41.6175C75.4353 41.6175 80.4941 41.6175 83.2041 41.6175M83.2041 41.6175V37.5191M83.2041 41.6175C84.1074 42.0728 86.0948 42.7104 86.8175 41.6175C87.5401 40.5246 87.1186 39.1129 86.8175 38.5437L87.7208 66.8907C78.6874 67.346 62.2466 66.6174 68.7506 60.0601C76.8807 51.8634 123.854 41.3636 116.628 30.6885C116.345 23.1984 104.93 8.34078 61.5239 8.8306C52.4905 9.96903 36.953 14.1585 47.0704 21.8087C67.8473 20.2149 113.376 18.3934 129.275 23.8579C139.211 28.6393 156.375 39.9781 145.535 47.0819" stroke="#513F39" stroke-linecap="round"/>
</svg>
