<svg width="108" height="76" viewBox="0 0 108 76" fill="none" xmlns="http://www.w3.org/2000/svg">
<path d="M19.3199 34.7761C19.2105 34.3005 18.799 34.0339 18.3965 33.8204C17.1122 33.1392 15.9763 33.1223 14.6296 33.608C9.9135 35.309 5.3188 38.7808 3.0579 43.4608C0.58262 48.5846 -0.0654993 55.3965 3.40234 60.2159C8.34461 67.0842 17.5042 62.2225 21.709 56.9392C25.3687 52.3407 28.0148 46.6807 30.6937 41.4508C34.5975 33.83 38.2248 26.057 41.8697 18.3017C44.175 13.3969 46.8346 8.65766 49.0443 3.7084C49.3269 3.07552 49.6152 2.35619 49.8065 1.67565C49.8203 1.62669 50.0257 0.365587 49.8578 1.41776C47.8465 14.0234 44.5886 26.3581 42.2142 38.8871C40.8072 46.3109 39.1888 53.8938 38.9823 61.4825C38.9781 61.6368 38.9818 62.0988 38.9676 61.9452C38.9256 61.4884 38.9402 60.9441 38.9603 60.5193C39.1517 56.4683 39.8307 52.4098 40.382 48.3986C41.0833 43.2962 41.8458 38.2033 42.434 33.0847C42.8903 29.1136 43.2912 25.0109 42.8151 21.0171C42.2994 16.6909 40.7031 12.0286 38.6452 8.21382C37.9947 7.00804 37.199 5.8054 35.9849 5.14953C34.0101 4.08266 31.54 3.8779 29.3893 3.46568C28.1632 3.23069 26.6796 2.73674 25.4025 2.87406C23.1836 3.11267 20.8866 4.69432 19.0707 5.87768C15.0428 8.50246 11.1512 11.6248 8.4297 15.7229C5.83792 19.6257 4.63278 24.0561 4.42833 28.7537C4.13606 35.469 5.6941 41.5565 8.40039 47.5946C9.68727 50.4658 11.0314 53.1006 13.1419 55.4222C15.1546 57.6362 17.4253 60.1256 20.2726 61.1412C25.4115 62.9742 31.1984 60.2292 35.6918 57.7963C40.1873 55.3622 43.6851 51.1996 46.2742 46.7603C46.7178 45.9996 47.1868 45.2447 47.454 44.3938C47.488 44.2858 47.6078 44.1282 47.52 44.06C47.5005 44.0449 47.4723 44.0829 47.4614 44.1055C47.2528 44.5373 46.9586 45.4781 46.8604 45.7894C45.6722 49.5573 44.6219 53.3659 43.3501 57.106C43.1487 57.6983 42.9747 58.175 42.8004 58.752C42.666 59.1972 43.1603 57.8966 43.3427 57.4701C44.2267 55.4043 45.2552 53.4277 46.2742 51.4325C46.3989 51.1884 46.692 50.5451 46.4354 50.621C46.0167 50.7448 44.8851 53.1267 44.955 53.5032C45.036 53.9391 48.1657 51.2058 48.3848 50.9699C48.928 50.3846 49.2374 49.9418 49.1249 49.1267C49.041 48.5182 46.9916 49.9086 46.8018 50.1431C46.0797 51.0351 45.7893 52.2561 45.043 53.1771C44.8667 53.3946 44.5925 53.6688 44.5446 53.9659C44.5274 54.0726 45.63 53.2546 45.7392 53.1771C46.3965 52.7102 47.0217 52.5498 47.0217 53.5487C47.0217 54.7934 46.048 55.811 46.0983 57.0605C46.1541 58.4466 48.1484 56.9446 48.5753 56.6206C49.5638 55.8704 50.3131 54.8068 50.9497 53.7384C51.2242 53.2777 52.5063 51.3894 52.1809 50.7347C51.9963 50.3631 51.196 51.7916 51.1549 51.9332C51.0047 52.4516 51.2862 53.0163 51.4334 53.4956C51.8396 54.818 52.4363 57.886 51.0597 58.9037C50.1079 59.6073 49.332 58.4419 49.0443 57.6218C49.0099 57.5236 48.8744 56.977 48.8684 56.7875C48.8568 56.4143 49.0926 57.4974 49.2129 57.8494C49.4109 58.4289 49.6186 59.2844 50.3855 59.116C52.279 58.7003 53.8257 55.6749 54.7166 54.1631C55.9804 52.0187 56.7295 49.636 57.6553 47.3291C57.8836 46.7605 57.9921 46.5228 58.1683 46.0018C58.2766 45.6817 58.0065 46.659 57.9265 46.9878C57.3155 49.5001 56.6902 52.0082 56.1677 54.5424C55.8424 56.1196 55.6991 57.797 55.2149 59.336C55.1952 59.3987 55.1051 59.5684 55.1123 59.5029C55.1977 58.7295 55.4224 57.9218 55.684 57.1971C56.1029 56.0361 56.7753 54.9131 57.6773 54.0873C59.0429 52.837 58.1445 55.7846 57.9631 56.3476C57.7092 57.136 57.2248 58.259 57.6334 59.0933C58.0047 59.8515 59.0304 59.1973 59.4215 58.8582C60.2432 58.1456 60.731 57.1574 61.1804 56.1731C61.449 55.5847 61.7024 54.433 62.3089 54.0873C62.8606 53.7728 63.2101 54.0255 63.3643 54.5955C63.3784 54.6478 63.5963 55.9347 63.4815 55.9228C63.3564 55.9099 63.1227 54.4975 63.0565 54.3603C62.5496 53.3111 61.0725 54.5082 60.5867 54.9747C59.4785 56.0388 59.2967 57.4668 59.2896 58.9568C59.2853 59.8562 59.3054 60.7521 60.3156 60.0186C61.2571 59.3351 61.9366 58.2829 62.4995 57.2653C62.9116 56.5204 63.0637 56.1581 63.3789 55.3843C63.4658 55.171 63.5416 54.953 63.6281 54.7396C63.7619 54.409 63.6843 54.6913 63.6281 54.8761C63.2344 56.1699 62.6916 57.4242 62.4335 58.7596C62.3448 59.2187 62.4257 59.5319 62.9099 59.2298C63.7602 58.6994 64.3176 57.5651 64.8593 56.742C65.2326 56.1747 65.5716 55.6414 65.724 54.9671C65.7558 54.8264 65.4508 56.4197 65.4016 56.6054C65.2602 57.139 64.3531 59.2816 64.9472 59.7759C66.2636 60.8712 68.9532 55.1154 69.2564 54.5575C69.4167 54.2626 70.5275 51.983 70.0918 53.6777C69.3296 56.643 68.7069 59.6395 67.886 62.5899C67.0817 65.4806 66.3804 68.5078 65.2404 71.2822C64.7158 72.5587 63.6535 74.5791 62.2063 74.9457C60.5808 75.3576 59.9321 73.3284 59.4801 72.1545C58.9983 70.9029 57.9547 68.9706 58.4102 67.5732C58.8434 66.2442 60.6078 65.3094 61.6201 64.6151C63.831 63.0986 65.9665 61.5406 68.1131 59.9352C71.1147 57.6905 74.3911 55.8214 77.1272 53.2074C80.2387 50.2348 82.5069 46.5099 83.0926 42.1183C83.6633 37.8398 82.5058 33.8153 79.5456 30.7106C75.2016 26.1545 69.139 23.5934 63.4302 21.4874C53.5856 17.8557 43.2623 15.1319 32.9069 13.6294C30.3954 13.265 27.3381 12.9489 24.7576 13.3412C21.5312 13.8317 18.2972 15.4194 15.4284 16.9365C12.4126 18.5313 9.50797 20.3982 7.1179 22.9058C6.67609 23.3693 6.08038 23.9899 5.81342 24.6275C5.40615 25.6003 6.29306 26.7127 6.87606 27.3581C10.7648 31.6632 16.4692 33.2222 21.9435 33.8128C28.28 34.4965 34.6779 33.8977 41.0269 33.8053C46.6117 33.7239 52.1957 33.8794 57.7799 33.9266C64.7137 33.9853 71.6607 33.8335 78.5856 34.2831C85.8186 34.7527 93.2399 36.3022 100.131 38.6672C103.288 39.7504 106.561 40.8483 106.954 44.7882C107.167 46.9199 106.671 48.8011 104.748 49.8625C102.695 50.9959 99.7851 51.7577 97.4419 51.5539C96.0848 51.4359 95.591 50.4066 96.8995 49.8549C97.8311 49.4621 97.8774 49.5516 97.4125 48.4289" stroke="#513F39"/>
</svg>
