<svg width="150" height="69" viewBox="0 0 150 69" fill="none" xmlns="http://www.w3.org/2000/svg">
<path d="M9.13007 41.2513L10.0334 39.8852L10.9368 38.5191L11.8401 37.153L12.7434 35.7869L13.6468 34.4207L14.5501 33.0546L17.2601 28.9563L19.9702 24.8579L24.4869 17.3443L27.1969 13.2459L34.4236 3L42.5537 41.2513M42.5537 41.2513C42.3509 40.4077 42.0822 39.4911 41.744 38.5191C41.2974 37.2359 40.7294 35.8563 40.0311 34.4207M42.5537 41.2513C44.9626 42.6175 49.7804 44.53 49.7804 41.2513C49.7804 39.7124 49.7804 37.712 49.7804 35.7869M4.61337 10.0923C3.44049 9.96794 2.23623 9.87979 1 9.8306L4.61337 10.0923ZM4.61337 10.0923C5.85262 10.2238 7.05685 10.3957 8.22673 10.6049M8.22673 10.6049C9.15141 10.7702 10.0546 10.9589 10.9368 11.1692M8.22673 10.6049L10.9368 11.1692M10.9368 11.1692C11.8632 11.3902 12.7665 11.6351 13.6468 11.9022M13.6468 11.9022C14.5754 12.184 15.4786 12.4904 16.3568 12.8193M13.6468 11.9022L16.3568 12.8193M16.3568 12.8193C17.2801 13.1651 18.1758 13.5358 19.0443 13.929M19.0443 13.929C20.3135 14.5034 21.5249 15.1257 22.6802 15.7881M19.0443 13.929L22.6802 15.7881M22.6802 15.7881C23.9082 16.4923 25.0728 17.2418 26.1761 18.0273M26.1761 18.0273C27.5079 18.9756 28.7503 19.9764 29.9069 21.0134M26.1761 18.0273L29.9069 21.0134M29.9069 21.0134C30.8067 21.8202 31.6546 22.6489 32.4523 23.4918M32.4523 23.4918C33.7208 24.8322 34.8622 26.2087 35.8834 27.5901M32.4523 23.4918L35.8834 27.5901M35.8834 27.5901C36.8971 28.9614 37.7923 30.3376 38.5757 31.6885M38.5757 31.6885C39.1126 32.6144 39.5971 33.5284 40.0311 34.4207M38.5757 31.6885L40.0311 34.4207M49.7804 35.7869C49.7804 33.6106 49.7804 31.5305 49.7804 30.3224V35.7869ZM49.7804 35.7869C53.0927 35.7869 59.5365 34.694 58.8139 30.3224C59.0525 32.1439 57.5799 35.7869 49.7804 35.7869ZM49.7804 35.7869C53.0927 36.2422 59.5365 38.3825 58.8139 43.3005C62.4272 42.1621 68.7506 39.2022 65.1373 36.4699C63.6317 36.2422 60.8012 36.3333 61.5239 38.5191C62.4272 41.2513 66.0406 40.5683 66.0406 42.6175H68.7506V39.5437M68.7506 36.4699V39.5437M68.7506 39.5437C69.9551 38.7468 72.5447 38.2459 73.2673 42.6175C74.7729 40.3406 77.9647 36.3333 78.6874 38.5191C79.5907 41.2513 78.6874 42.6175 76.8807 42.6175C75.4353 42.6175 80.4941 42.6175 83.2041 42.6175M83.2041 42.6175V38.5191M83.2041 42.6175C84.1074 43.0728 86.0948 43.7104 86.8175 42.6175C87.5401 41.5246 87.1186 40.1129 86.8175 39.5437L87.7208 67.8907C78.6874 68.346 62.2466 67.6174 68.7506 61.0601C76.8807 52.8634 123.854 42.3636 116.628 31.6885C116.345 24.1984 104.93 9.34078 61.5239 9.8306C52.4905 10.969 36.953 15.1585 47.0704 22.8087C67.8473 21.2149 113.376 19.3934 129.275 24.8579C139.211 29.6393 156.375 40.9781 145.535 48.0819" stroke="#513F39" stroke-width="2" stroke-linecap="round"/>
</svg>
